<svg width="68" height="68" viewBox="0 0 68 68" fill="none" xmlns="http://www.w3.org/2000/svg">
<rect width="68" height="68" rx="34" fill="#786960"/>
<rect x="4.20801" y="4.24243" width="60" height="60" rx="29.5" fill="#8A8787"/>
<path d="M41.8675 41.6592C46.8688 33.8112 46.2401 34.7903 46.3842 34.5857C48.2051 32.0174 49.1675 28.9946 49.1675 25.844C49.1675 17.4886 42.3873 10.6057 34.021 10.6057C25.682 10.6057 18.8745 17.4751 18.8745 25.844C18.8745 28.9926 19.8571 32.0945 21.7377 34.6974L26.1744 41.6593C21.4308 42.3883 13.3667 44.5606 13.3667 49.344C13.3667 51.0877 14.5048 53.5726 19.9267 55.509C23.7126 56.8611 28.718 57.6057 34.021 57.6057C43.9374 57.6057 54.6753 54.8085 54.6753 49.344C54.6753 44.5598 46.6207 42.3897 41.8675 41.6592ZM24.038 33.1827C24.0229 33.159 24.0071 33.1359 23.9906 33.1131C22.4257 30.9603 21.6284 28.4089 21.6284 25.844C21.6284 18.9576 27.1735 13.3596 34.021 13.3596C40.8543 13.3596 46.4136 18.9601 46.4136 25.844C46.4136 28.413 45.6314 30.8779 44.1512 32.9739C44.0185 33.1489 44.7106 32.0738 34.021 48.8473L24.038 33.1827ZM34.021 54.8518C23.1895 54.8518 16.1206 51.668 16.1206 49.344C16.1206 47.782 19.7529 45.2136 27.8016 44.2125L32.8598 52.1495C33.1126 52.5462 33.5505 52.7864 34.0209 52.7864C34.4914 52.7864 34.9294 52.5461 35.1821 52.1495L40.2402 44.2125C48.2891 45.2136 51.9214 47.782 51.9214 49.344C51.9214 51.6483 44.9161 54.8518 34.021 54.8518Z" fill="white"/>
<path d="M34.021 18.9592C30.2247 18.9592 27.1362 22.0477 27.1362 25.844C27.1362 29.6403 30.2247 32.7288 34.021 32.7288C37.8172 32.7288 40.9057 29.6403 40.9057 25.844C40.9057 22.0477 37.8172 18.9592 34.021 18.9592ZM34.021 29.9749C31.7432 29.9749 29.8901 28.1217 29.8901 25.844C29.8901 23.5662 31.7432 21.7131 34.021 21.7131C36.2987 21.7131 38.1518 23.5662 38.1518 25.844C38.1518 28.1217 36.2987 29.9749 34.021 29.9749Z" fill="white"/>
</svg>
