<svg width="68" height="68" viewBox="0 0 68 68" fill="none" xmlns="http://www.w3.org/2000/svg">
<rect width="68" height="68" rx="34" fill="#786960"/>
<rect x="4.03207" y="4.06079" width="60" height="60" rx="29.5" fill="#8A8787"/>
<path d="M49.02 29.2347V19.6694C49.02 17.5699 47.3246 15.8625 45.2395 15.8625H16.8858C14.8008 15.8625 13.1054 17.5698 13.1054 19.6694V38.7035C13.1054 40.8029 14.8008 42.5103 16.8859 42.5103H38.0816C39.32 46.8976 43.3262 50.1239 48.075 50.1239C49.9024 50.1239 51.6994 49.6397 53.274 48.7224C53.7254 48.4594 53.8805 47.8776 53.6183 47.4222C53.3571 46.9668 52.7784 46.8097 52.327 47.0755C51.0404 47.8247 49.5701 48.2205 48.0749 48.2205C43.3843 48.2205 39.5688 44.3784 39.5688 39.6552C39.5688 34.932 43.3844 31.0899 48.0749 31.0899C52.7654 31.0899 56.581 34.932 56.581 39.6552V40.6069C56.581 41.6562 55.7328 42.5103 54.6908 42.5103C53.6488 42.5103 52.8005 41.6562 52.8005 40.6069V36.8001C52.8005 36.274 52.3778 35.8483 51.8554 35.8483C51.6012 35.8483 51.3728 35.9519 51.2031 36.116C50.3677 35.3665 49.2791 34.8966 48.0749 34.8966C45.4693 34.8966 43.3493 37.0314 43.3493 39.6551C43.3493 42.2788 45.4693 44.4137 48.075 44.4137C49.4834 44.4137 50.7358 43.7774 51.6023 42.7897C52.287 43.7691 53.4134 44.4137 54.6908 44.4137C56.7758 44.4137 58.4713 42.7064 58.4713 40.6068V39.6551C58.4713 34.2039 54.3107 29.7177 49.02 29.2347ZM16.8859 17.7659H45.2396C45.2789 17.7659 45.3119 17.7862 45.3507 17.7886L31.8399 28.9559C31.359 29.2608 30.6622 29.1975 30.3493 29.0043L16.7759 17.7884C16.8143 17.7861 16.8469 17.7659 16.8859 17.7659ZM47.1298 29.2347C41.8391 29.7177 37.6785 34.2039 37.6785 39.6552C37.6785 39.9764 37.6981 40.293 37.7264 40.6069H16.8859C15.8439 40.6069 14.9957 39.7528 14.9957 38.7035V19.6694C14.9957 19.3999 15.0548 19.1453 15.1556 18.9128L29.2335 30.5378C29.7835 30.8994 30.4158 31.0899 31.0628 31.0899C31.6849 31.0899 32.2931 30.9134 32.8285 30.5788C32.882 30.55 32.9328 30.5156 32.9808 30.4756L46.9698 18.9126C47.0707 19.1453 47.1299 19.3999 47.1299 19.6695V29.2347H47.1298ZM48.075 42.5103C46.5114 42.5103 45.2396 41.2296 45.2396 39.6552C45.2396 38.0808 46.5114 36.8001 48.075 36.8001C49.6385 36.8001 50.9103 38.0808 50.9103 39.6552C50.9103 41.2296 49.6385 42.5103 48.075 42.5103Z" fill="white"/>
</svg>
