<svg width="67" height="67" viewBox="0 0 67 67" fill="none" xmlns="http://www.w3.org/2000/svg">
<rect width="67" height="67" rx="33.5" fill="#786960"/>
<rect x="4" y="4" width="59" height="58" rx="29" fill="#8A8787"/>
<g clip-path="url(#clip0_0_1)">
<path d="M46.5634 38.8758C45.6421 37.9165 44.5309 37.4037 43.3532 37.4037C42.185 37.4037 41.0643 37.907 40.105 38.8663L37.1038 41.858C36.8568 41.7251 36.6099 41.6016 36.3725 41.4781C36.0306 41.3072 35.7076 41.1457 35.4322 40.9747C32.6209 39.1892 30.0661 36.8623 27.6157 33.8516C26.4285 32.351 25.6307 31.0878 25.0514 29.8056C25.8302 29.0933 26.552 28.3525 27.2548 27.6402C27.5207 27.3742 27.7867 27.0988 28.0526 26.8329C30.0471 24.8384 30.0471 22.2551 28.0526 20.2606L25.4598 17.6677C25.1653 17.3733 24.8614 17.0694 24.5765 16.7655C24.0066 16.1766 23.4083 15.5688 22.791 14.9989C21.8697 14.0872 20.768 13.6028 19.6093 13.6028C18.4506 13.6028 17.3299 14.0872 16.3801 14.9989C16.3706 15.0084 16.3706 15.0084 16.3611 15.0179L13.1319 18.2756C11.9163 19.4913 11.2229 20.9729 11.071 22.6919C10.843 25.4652 11.6598 28.0486 12.2867 29.7391C13.8253 33.8896 16.1237 37.7361 19.5523 41.858C23.7122 46.8252 28.7174 50.7477 34.435 53.5115C36.6194 54.5468 39.5352 55.7719 42.7928 55.9809C42.9923 55.9904 43.2012 55.9999 43.3912 55.9999C45.5851 55.9999 47.4276 55.2116 48.8713 53.6445C48.8808 53.6255 48.8997 53.616 48.9092 53.597C49.4031 52.9987 49.973 52.4573 50.5713 51.8779C50.9797 51.4885 51.3976 51.0802 51.806 50.6528C52.7463 49.6745 53.2401 48.5348 53.2401 47.3666C53.2401 46.1889 52.7368 45.0587 51.7775 44.1089L46.5634 38.8758ZM49.9635 48.8767C49.954 48.8767 49.954 48.8862 49.9635 48.8767C49.5931 49.2756 49.2132 49.6365 48.8048 50.0354C48.1874 50.6243 47.5606 51.2416 46.9717 51.9349C46.0125 52.9607 44.8823 53.445 43.4007 53.445C43.2582 53.445 43.1062 53.445 42.9638 53.4355C40.143 53.2551 37.5217 52.1534 35.5557 51.2131C30.1801 48.6108 25.4598 44.9162 21.5373 40.2339C18.2986 36.3304 16.1332 32.7214 14.699 28.8464C13.8158 26.4815 13.4928 24.6389 13.6353 22.9009C13.7303 21.7897 14.1577 20.8684 14.946 20.0801L18.1846 16.8415C18.65 16.4046 19.1439 16.1671 19.6283 16.1671C20.2266 16.1671 20.711 16.528 21.0149 16.832C21.0244 16.8415 21.0339 16.8509 21.0434 16.8604C21.6228 17.4018 22.1736 17.9622 22.753 18.5605C23.0474 18.8644 23.3513 19.1684 23.6552 19.4818L26.2481 22.0746C27.2548 23.0813 27.2548 24.0121 26.2481 25.0189C25.9726 25.2943 25.7067 25.5697 25.4313 25.8356C24.6335 26.6524 23.8737 27.4122 23.0474 28.153C23.0284 28.172 23.0094 28.1815 22.9999 28.2005C22.1831 29.0173 22.3351 29.8151 22.506 30.3565C22.5155 30.385 22.525 30.4135 22.5345 30.442C23.2089 32.0755 24.1586 33.6141 25.6022 35.4472L25.6117 35.4567C28.2331 38.6858 30.9969 41.2027 34.0456 43.1307C34.435 43.3776 34.8339 43.5771 35.2138 43.767C35.5557 43.938 35.8786 44.0994 36.154 44.2704C36.192 44.2894 36.23 44.3179 36.268 44.3369C36.5909 44.4983 36.8948 44.5743 37.2083 44.5743C37.9966 44.5743 38.4904 44.0805 38.6519 43.919L41.9 40.6708C42.223 40.3479 42.7358 39.9585 43.3342 39.9585C43.923 39.9585 44.4074 40.3289 44.7018 40.6518C44.7113 40.6613 44.7113 40.6613 44.7208 40.6708L49.954 45.904C50.9322 46.8727 50.9322 47.87 49.9635 48.8767Z" fill="white"/>
<path d="M35.3191 21.7043C37.8075 22.1222 40.0679 23.2999 41.8725 25.1044C43.677 26.9089 44.8452 29.1694 45.2726 31.6577C45.3771 32.2846 45.9184 32.7215 46.5358 32.7215C46.6117 32.7215 46.6782 32.712 46.7542 32.7025C47.457 32.5885 47.9224 31.9237 47.8084 31.2208C47.2956 28.2101 45.8709 25.4653 43.696 23.2904C41.521 21.1154 38.7762 19.6908 35.7655 19.1779C35.0627 19.064 34.4074 19.5293 34.2839 20.2227C34.1604 20.916 34.6163 21.5903 35.3191 21.7043Z" fill="white"/>
<path d="M55.9478 30.8504C55.1025 25.8927 52.7661 21.3814 49.1761 17.7913C45.586 14.2012 41.0747 11.8648 36.1169 11.0195C35.4236 10.8961 34.7683 11.371 34.6448 12.0643C34.5308 12.7671 34.9962 13.4224 35.699 13.5459C40.1249 14.2962 44.1614 16.3952 47.3715 19.5958C50.5817 22.806 52.6712 26.8425 53.4215 31.2683C53.5259 31.8952 54.0673 32.3321 54.6846 32.3321C54.7606 32.3321 54.8271 32.3226 54.9031 32.3131C55.5964 32.2086 56.0713 31.5438 55.9478 30.8504Z" fill="white"/>
</g>
<defs>
<clipPath id="clip0_0_1">
<rect width="45" height="45" fill="white" transform="translate(11 11)"/>
</clipPath>
</defs>
</svg>
